PathFileType	4	(X/Y/Z)	./resultDataOpenSim/trcMotMarkerGrf/sub09/qtm-05-07.trc
DataRate	CameraRate	NumFrames	NumMarkers	Units	OrigDataRate	OrigDataStartFrame	OrigNumFrames
250.000000	250.000000	8	24	m	250.000000	385	513
Frame#	Time	L.Toe.Tip			R.Toe.Tip			L.Ankle.Lat			R.Ankle.Lat			L.Ankle.Med			R.Ankle.Med			L.Heel			R.Heel			L.Knee.Lat			R.Knee.Lat			L.Knee.Med			R.Knee.Med			L.Thigh.Upper			R.Thigh.Upper			L.ASIS			R.ASIS			V.Sacral			L.Acromium			R.Acromium			C7			L.Elbow			R.Elbow			L.Wrist.Lat			R.Wrist.Lat
		X1	Y1	Z1	X2	Y2	Z2	X3	Y3	Z3	X4	Y4	Z4	X5	Y5	Z5	X6	Y6	Z6	X7	Y7	Z7	X8	Y8	Z8	X9	Y9	Z9	X10	Y10	Z10	X11	Y11	Z11	X12	Y12	Z12	X13	Y13	Z13	X14	Y14	Z14	X15	Y15	Z15	X16	Y16	Z16	X17	Y17	Z17	X18	Y18	Z18	X19	Y19	Z19	X20	Y20	Z20	X21	Y21	Z21	X22	Y22	Z22	X23	Y23	Z23	X24	Y24	Z24

385	1.536	0.68714519	0.15397512	0.052301825	1.0246289	0.039244801	0.16109495	0.6742545	0.30714052	7.9055015e-05	0.87649537	0.056228454	0.18701275	0.68715704	0.2992268	0.096911975	0.89847022	0.098524658	0.098826161	0.60782705	0.35466274	0.036882843	0.80855214	0.039910308	0.13407951	1.0307548	0.48852822	-0.0088122317	0.985661	0.49830651	0.25997921	1.031456	0.48229391	0.12191417	0.97420379	0.48868301	0.13419277	0.87707787	0.86967528	-0.046789244	0.87281852	0.891982	0.32179636	0.94985455	0.9556209	0.010076538	0.95627989	0.97084213	0.24719149	0.78716886	1.0270201	0.12578646	0.97712975	1.4102152	-0.046487645	0.9549918	1.4298504	0.28278404	0.89854211	1.4720441	0.11420729	0.82230152	1.072262	-0.10252979	0.81465825	1.0875778	0.3767457	0.95514259	0.84311216	-0.11972415	1.0051242	0.88421656	0.37698348
386	1.54	0.70369475	0.15298575	0.051113355	1.0247264	0.039235456	0.16108388	0.68642896	0.30563711	0.0004886672	0.87665527	0.056459785	0.18685883	0.69960135	0.29732753	0.097379645	0.89874557	0.098733211	0.098718417	0.61859573	0.35147397	0.038078575	0.80867701	0.040258494	0.13389704	1.0403352	0.49217441	-0.0082812832	0.98710709	0.49849035	0.25998832	1.0409795	0.48587822	0.12245157	0.97549526	0.48883248	0.13413338	0.88188713	0.87149323	-0.047089262	0.87768398	0.89298654	0.32173686	0.95480872	0.9574868	0.010099172	0.96131961	0.97203435	0.24722995	0.79194023	1.028289	0.12589105	0.98126617	1.411756	-0.046532131	0.95968114	1.4314282	0.28277048	0.90290786	1.4735202	0.11429114	0.82615539	1.0740346	-0.10253926	0.81964086	1.0889963	0.37709043	0.95842483	0.84466602	-0.12073505	1.0112972	0.88652536	0.37670682
387	1.544	0.72039609	0.15188161	0.049985769	1.0248335	0.039231973	0.1610657	0.69860235	0.30390055	0.00094073955	0.87677849	0.05670382	0.18672145	0.7121271	0.29522848	0.097785861	0.89903893	0.098948041	0.098605627	0.62958913	0.34805573	0.039232046	0.80880175	0.040616471	0.13369948	1.0499639	0.49573071	-0.0076818897	0.98852306	0.49862866	0.2599592	1.0503809	0.48941929	0.12292771	0.97663941	0.4889325	0.13408786	0.88675343	0.87327186	-0.04733311	0.88243448	0.89394367	0.32169252	0.95973962	0.95929947	0.010119205	0.96634395	0.97317522	0.24725318	0.79648037	1.0294375	0.12583664	0.98539176	1.4132521	-0.046570626	0.96436998	1.4329553	0.2827621	0.90728814	1.4749586	0.11439771	0.83001588	1.075757	-0.1025401	0.82471801	1.0903882	0.37750815	0.9617362	0.84618568	-0.12172549	1.0174438	0.88876984	0.37641347
388	1.548	0.73726943	0.15066703	0.04891016	1.0249379	0.039229648	0.16104433	0.71077528	0.30193691	0.0014419536	0.87683374	0.056973635	0.18660978	0.72479766	0.29287991	0.098127882	0.89934483	0.099168203	0.098487596	0.6407349	0.34436808	0.040358994	0.80891995	0.040982083	0.13348253	1.0595776	0.4991873	-0.0070481364	0.98989163	0.4987026	0.25990297	1.0596553	0.49290763	0.12333959	0.97780888	0.4890531	0.13401909	0.89169409	0.87500288	-0.047541032	0.88675774	0.89483661	0.32173467	0.96464653	0.96106115	0.010139127	0.97135395	0.9742703	0.2472623	0.80084467	1.0304996	0.12566761	0.98951425	1.4147031	-0.046602177	0.96906223	1.4344294	0.28275961	0.91169184	1.4763539	0.11451858	0.83386032	1.0774178	-0.10252468	0.8298158	1.0917324	0.37794686	0.96507553	0.84766802	-0.12269887	1.0235255	0.89093657	0.37609794
389	1.552	0.75432576	0.14935927	0.047853187	1.0250316	0.039226979	0.16102262	0.72297468	0.29973755	0.0019699481	0.87679423	0.057277428	0.18652596	0.73766141	0.29023211	0.098472818	0.89965833	0.099405156	0.098367122	0.65197803	0.34037028	0.041469635	0.80903473	0.041362338	0.13324378	1.0690157	0.50257668	-0.0064857296	0.99125628	0.49875335	0.25988933	1.0687975	0.49633443	0.12368411	0.97910579	0.48920577	0.13391742	0.89672168	0.87667831	-0.047740223	0.89033106	0.89565012	0.32194256	0.96951803	0.96276988	0.010161058	0.97635205	0.97532651	0.24725886	0.80531911	1.0315725	0.12557799	0.99363845	1.4161098	-0.046627236	0.97375311	1.4358497	0.28275961	0.9160991	1.4776854	0.11463548	0.83770815	1.0790132	-0.10251353	0.83490964	1.0930197	0.37838124	0.96844799	0.84911303	-0.12365745	1.029529	0.89302091	0.37576153
390	1.556	0.77155034	0.14797294	0.046786877	1.0251127	0.039225024	0.16100181	0.73522654	0.29728526	0.0025033688	0.87671456	0.057607554	0.1864507	0.75072232	0.28730262	0.098910321	0.89997401	0.099668079	0.098247107	0.66330463	0.3360358	0.042543389	0.80915469	0.041773965	0.13298656	1.078152	0.50593751	-0.0060888038	0.99265611	0.49880692	0.25994174	1.0778026	0.49969124	0.12395805	0.98040939	0.48936042	0.13375832	0.90186865	0.87829783	-0.047941076	0.89324252	0.89638719	0.32229942	0.97435108	0.96441923	0.010184159	0.98133771	0.97634842	0.24724411	0.81020803	1.032745	0.1257634	0.99776132	1.4174717	-0.046649453	0.97843034	1.4372168	0.28275725	0.92048707	1.4789482	0.11474117	0.84158631	1.0805521	-0.10252408	0.84000585	1.0942502	0.37880875	0.97185804	0.85052269	-0.1245984	1.0354689	0.8950279	0.37541123
391	1.56	0.78884909	0.14650029	0.045751705	1.0251836	0.039226243	0.16098179	0.74755394	0.29456465	0.0030269159	0.87668957	0.057945262	0.18636247	0.76399651	0.28416053	0.099431821	0.90028646	0.099950632	0.098127877	0.67472558	0.33136063	0.043545254	0.80928081	0.042221013	0.13272179	1.0869839	0.50927534	-0.0058629308	0.99407878	0.4988485	0.26000357	1.0866663	0.5029698	0.12415823	0.98161646	0.4894975	0.13353586	0.90719331	0.8798673	-0.048117778	0.89612459	0.89707282	0.32265834	0.97918032	0.96600437	0.010198724	0.98630754	0.97733574	0.24722019	0.81553157	1.0340119	0.12622026	1.0018774	1.4187865	-0.046671874	0.9830846	1.43853	0.28274933	0.92485182	1.4801584	0.11484502	0.84547619	1.0820424	-0.10253889	0.84511576	1.0954272	0.37923274	0.9753051	0.85189632	-0.12551958	1.0413688	0.8969639	0.37505275
392	1.564	0.8060825	0.1449222	0.044842076	1.0252488	0.039232313	0.16096243	0.75997812	0.29157199	0.0035269678	0.87674909	0.058278861	0.1862623	0.77750021	0.28086799	0.099931845	0.90059335	0.10023782	0.098011864	0.68624946	0.32635166	0.044455279	0.80940763	0.042677883	0.13246546	1.0955874	0.51256825	-0.0057474146	0.99548232	0.49887528	0.2600034	1.0953845	0.5061619	0.12428167	0.98286741	0.48956732	0.13336006	0.91272374	0.88138728	-0.048229397	0.89959627	0.89774438	0.32287466	0.98406172	0.96752623	0.010194766	0.99126012	0.97828448	0.24719285	0.82099478	1.0352696	0.12673867	1.0059858	1.4200522	-0.046693428	0.98771829	1.4397884	0.28273788	0.92919713	1.4813288	0.11495344	0.84935604	1.0834827	-0.10254037	0.85024515	1.0965523	0.37965205	0.97878405	0.85322975	-0.12642008	1.0472426	0.89882957	0.3746863
